<?xml version="1.0" encoding="utf-8"?>
<!DOCTYPE svg PUBLIC "-//W3C//DTD SVG 1.1//EN" "http://www.w3.org/Graphics/SVG/1.1/DTD/svg11.dtd">
<svg version="1.0" xmlns="http://www.w3.org/2000/svg"
 width="200.000000pt" height="200.000000pt" viewBox="0 0 200.000000 200.000000"
 preserveAspectRatio="xMidYMid meet">
<g transform="translate(0.000000,200.000000) scale(0.100000,-0.100000)"
fill="#000000" stroke="none">
<path d="M374 1879 c-18 -20 -19 -42 -19 -425 l0 -403 23 -23 c22 -22 28 -23
257 -26 l235 -3 0 -80 0 -79 -34 0 c-33 0 -62 -20 -49 -33 3 -4 100 -7 215 -7
194 0 209 1 206 17 -2 13 -15 19 -46 21 l-42 3 0 80 0 79 219 0 c225 0 273 7
291 40 6 11 10 176 10 417 0 388 -1 400 -20 421 l-21 22 -603 0 c-600 0 -603
0 -622 -21z m1204 -25 l22 -15 0 -384 c0 -335 -2 -386 -16 -399 -14 -14 -81
-16 -585 -16 -556 0 -569 0 -589 20 -19 19 -20 33 -20 393 0 384 1 396 40 410
8 3 265 6 570 6 488 1 558 -1 578 -15z m-498 -934 l0 -80 -85 0 -85 0 0 80 0
80 85 0 85 0 0 -80z"/>
<path d="M1072 1688 c-6 -7 -49 -111 -97 -231 -81 -201 -95 -255 -63 -245 16
6 201 466 193 479 -8 13 -21 11 -33 -3z"/>
<path d="M638 1543 c-76 -42 -138 -82 -138 -89 0 -15 265 -164 291 -164 46 0
10 33 -102 95 -66 37 -119 69 -117 70 2 2 55 33 118 68 107 60 147 97 103 97
-10 0 -80 -35 -155 -77z"/>
<path d="M1185 1611 c-9 -15 15 -32 133 -96 l111 -60 -47 -26 c-26 -15 -78
-44 -117 -66 -68 -38 -97 -73 -58 -73 28 1 278 145 281 162 2 11 -40 40 -134
92 -136 76 -158 84 -169 67z"/>
<path d="M745 539 c-74 -18 -108 -75 -85 -143 13 -41 62 -68 155 -86 76 -15
113 -34 127 -65 27 -59 -36 -106 -139 -104 -89 2 -107 9 -111 47 -3 28 -7 33
-25 30 -17 -2 -23 -11 -25 -40 -3 -30 1 -40 20 -52 55 -36 230 -37 284 -1 14
9 33 33 41 53 13 32 14 42 2 76 -19 53 -49 72 -152 97 -132 32 -166 71 -112
124 20 21 34 25 83 25 100 0 120 -7 124 -44 2 -23 8 -32 26 -34 20 -3 22 1 22
43 0 43 -2 47 -34 60 -45 19 -152 26 -201 14z"/>
<path d="M167 533 c-17 -16 -5 -33 23 -33 l30 0 2 -197 3 -198 110 0 c101 0
114 2 155 27 67 39 95 93 94 188 0 50 -5 85 -16 106 -24 44 -81 91 -125 103
-42 12 -266 15 -276 4z m294 -61 c53 -32 74 -76 74 -152 0 -119 -52 -168 -185
-177 l-80 -6 0 183 0 183 79 -5 c56 -3 88 -10 112 -26z"/>
<path d="M1037 534 c-17 -17 -5 -34 23 -34 l30 0 2 -197 3 -198 155 0 c131 0
155 2 155 15 0 12 -23 15 -132 18 l-133 3 0 79 0 80 95 0 c88 0 95 -1 95 -20
0 -13 7 -20 20 -20 19 0 21 5 18 63 -2 47 -7 62 -18 62 -8 0 -16 -10 -18 -22
-3 -22 -8 -23 -98 -23 l-94 0 0 80 0 80 110 0 110 0 0 -31 c0 -26 3 -30 23
-27 19 3 22 9 22 48 l0 45 -181 3 c-99 1 -183 -1 -187 -4z"/>
<path d="M1440 490 c0 -43 3 -50 20 -50 16 0 20 7 20 30 l0 30 65 0 65 0 0
-193 c0 -194 5 -222 36 -210 11 4 14 44 14 204 l0 199 64 0 c63 0 65 -1 68
-27 2 -20 9 -28 23 -28 17 0 20 7 20 45 l0 45 -197 3 -198 2 0 -50z"/>
</g>
</svg>
